<?xml version="1.0" encoding="iso-8859-1"?>
<!-- Generator: Adobe Illustrator 21.0.0, SVG Export Plug-In . SVG Version: 6.00 Build 0)  -->
<svg xmlns="http://www.w3.org/2000/svg" xmlns:xlink="http://www.w3.org/1999/xlink" version="1.1" id="Capa_1" x="0px" y="0px" viewBox="0 0 512 512" style="enable-background:new 0 0 512 512;" xml:space="preserve" width="512" height="512">
<g>
	<path style="fill:#FAC004;" d="M474.593,280.403c-8.264,0-14.963-6.716-14.963-15c0-112.325-91.348-203.708-203.63-203.708   S52.37,153.078,52.37,265.403c0,8.284-6.699,15-14.963,15s-14.963-6.716-14.963-15c0-62.431,24.298-121.124,68.417-165.267   C134.974,56.001,193.62,31.695,256,31.695s121.026,24.306,165.138,68.441c44.119,44.143,68.417,102.836,68.417,165.267   C489.556,273.687,482.856,280.403,474.593,280.403z"/>
	<path style="fill:#F49F11;" d="M421.138,100.136C377.026,56.001,318.379,31.695,256,31.695v30   c112.282,0,203.63,91.383,203.63,203.708c0,8.284,6.699,15,14.963,15s14.963-6.716,14.963-15   C489.556,202.972,465.258,144.279,421.138,100.136z"/>
	<path style="fill:#EE7625;" d="M497.037,302.903h-44.889c-8.264,0-14.963-6.716-14.963-15v-45c0-8.284,6.699-15,14.963-15h44.889   c8.264,0,14.963,6.716,14.963,15v45C512,296.187,505.301,302.903,497.037,302.903z"/>
	<path style="fill:#D9D2CC;" d="M350.911,320.045l-20.898,40.53l-5.217,10.11l-3.411,6.62l-2.574,4.99   c-2.543,5.07-6.723,8.28-12.389,8.28h-100.75c-5.666,0-10.843-3.21-13.387-8.28l-1.576-3.15l-4.239-8.49l-5.038-10.08l-20.25-40.53   c-8.23-16.47-6.484-35.86,4.549-50.59l78.356-104.52c2.823-3.77,7.252-5.99,11.96-5.99c4.708,0,9.137,2.22,11.96,5.99   l78.346,104.52C357.395,284.185,359.141,303.575,350.911,320.045z"/>
	<path style="fill:#CDC8C4;" d="M346.352,269.455l-78.346-104.52c-2.823-3.77-7.252-5.99-11.96-5.99   c-0.015,0-0.031,0.003-0.046,0.003v231.627h50.421c5.666,0,9.846-3.21,12.389-8.28l2.574-4.99l3.411-6.62l5.217-10.11l20.898-40.53   C359.141,303.575,357.395,284.185,346.352,269.455z"/>
	<path style="fill:#FF9F00;" d="M474.593,61.695H37.407c-8.264,0-14.963-6.716-14.963-15s6.699-15,14.963-15h437.185   c8.264,0,14.963,6.716,14.963,15S482.856,61.695,474.593,61.695z"/>
	<path style="fill:#F49F11;" d="M59.852,302.903H14.963c-8.264,0-14.963-6.716-14.963-15v-45c0-8.284,6.699-15,14.963-15h44.889   c8.264,0,14.963,6.716,14.963,15v45C74.814,296.187,68.115,302.903,59.852,302.903z"/>
	<path style="fill:#FF7816;" d="M278.444,84.195h-44.889c-8.264,0-14.963-6.716-14.963-15v-45c0-8.284,6.699-15,14.963-15h44.889   c8.264,0,14.963,6.716,14.963,15v45C293.407,77.479,286.708,84.195,278.444,84.195z"/>
	<path style="fill:#FF7816;" d="M37.6,84.195h-0.386C16.694,84.195,0,67.459,0,46.888v-0.386C0,25.931,16.694,9.195,37.214,9.195   H37.6c20.52,0,37.214,16.736,37.214,37.307v0.386C74.814,67.459,58.121,84.195,37.6,84.195z"/>
	<path style="fill:#FF7816;" d="M474.593,31.695H256v30h218.593c8.264,0,14.963-6.716,14.963-15S482.856,31.695,474.593,31.695z"/>
	<path style="fill:#FF4B00;" d="M278.444,9.195H256v75h22.444c8.264,0,14.963-6.716,14.963-15v-45   C293.407,15.911,286.708,9.195,278.444,9.195z"/>
	<path style="fill:#FF4B00;" d="M474.933,84.195h-0.68c-20.439,0-37.067-16.669-37.067-37.159v-0.683   c0-20.489,16.629-37.159,37.067-37.159h0.68C495.371,9.195,512,25.865,512,46.354v0.683C512,67.526,495.371,84.195,474.933,84.195z   "/>
	<path style="fill:#127793;" d="M190.662,379.055v65.75c0,31.98,25.986,58,57.936,58h13.908c31.951,0,57.936-26.02,57.936-58v-65.75   H190.662z"/>
	<path style="fill:#0D5E7B;" d="M256,502.805h6.506c31.951,0,57.937-26.02,57.937-58v-65.75H256V502.805z"/>
	<path style="fill:#EBE1E2;" d="M271.009,258.711v-84.762c0-8.284-6.699-15-14.963-15c-8.264,0-14.963,6.716-14.963,15v84.762   c-13.198,5.798-22.444,19.014-22.444,34.359c0,20.677,16.781,37.5,37.407,37.5s37.407-16.823,37.407-37.5   C293.453,277.724,284.207,264.509,271.009,258.711z"/>
	<path style="fill:#D9D2CC;" d="M256,330.569c0.016,0,0.031,0.001,0.046,0.001c20.627,0,37.407-16.823,37.407-37.5   c0-15.346-9.247-28.561-22.444-34.359v-84.762c0-8.284-6.699-15-14.963-15c-0.016,0-0.031,0.002-0.046,0.002"/>
	<path style="fill:#D9D2CC;" d="M256.046,300.57"/>
	<path style="fill:#D9D2CC;" d="M256.046,300.57"/>
	<path style="fill:#D9D2CC;" d="M240.937,291.993c0,8.284,6.716,15,15,15v-30C247.652,276.993,240.937,283.708,240.937,291.993z"/>
	<path style="fill:#CDC8C4;" d="M255.937,276.993v30c8.284,0,15-6.716,15-15C270.937,283.708,264.221,276.993,255.937,276.993z"/>
</g>















</svg>
