<svg xmlns="http://www.w3.org/2000/svg" xmlns:xlink="http://www.w3.org/1999/xlink" viewBox="0 0 2100 2100"><defs><style>.cls-1{fill:none;}.cls-2{fill:#f3ae9f;}.cls-3{clip-path:url(#clip-path);}.cls-4{fill:#efecd9;}.cls-5{fill:#231e20;}.cls-6{fill:#abd2bf;}</style><clipPath id="clip-path"><path class="cls-1" d="M1117.71,266a1139,1139,0,0,0-209,25.25c-327.45,71.7-627.38,335.86-712,674.07-79,315.81,104,611.46,368.13,762.31,216.4,123.61,449,118.92,687.47,89.39,92.57-11.46,185.19-27.68,272.89-60.16,133.33-49.39,241.9-133.66,303.6-266.85,38.1-82.25,57.86-172.12,72.55-261.92,23.68-144.74,34.47-296.21-9.39-435.9C1866,709.62,1821.74,634.13,1770.7,565c-70.72-95.87-158.58-183.78-267.24-232.51C1383.35,278.57,1247.75,262.3,1117.71,266ZM844.06,1775.92a17.39,17.39,0,0,1-1.53-1.22l1.53,1.22Z"/></clipPath></defs><title>myicon</title><g id="Draw_Layer" data-name="Draw Layer"><path class="cls-2" d="M1117.71,266a1139,1139,0,0,0-209,25.25c-327.45,71.7-627.38,335.86-712,674.07-79,315.81,104,611.46,368.13,762.31,216.4,123.61,449,118.92,687.47,89.39,92.57-11.46,185.19-27.68,272.89-60.16,133.33-49.39,241.9-133.66,303.6-266.85,38.1-82.25,57.86-172.12,72.55-261.92,23.68-144.74,34.47-296.21-9.39-435.9C1866,709.62,1821.74,634.13,1770.7,565c-70.72-95.87-158.58-183.78-267.24-232.51C1383.35,278.57,1247.75,262.3,1117.71,266ZM844.06,1775.92a17.39,17.39,0,0,1-1.53-1.22l1.53,1.22Z"/><g class="cls-3"><path class="cls-4" d="M1325.65,584.07c-50-2.49-100.19,3.26-148.2,18.17C1004.42,656,881.6,805.88,770.26,948.81s-231.94,293.88-403.71,351.54c-78.65,26.4-171.3,35.77-222.95,100.69-45.64,57.36-41.84,142.19-10.07,208.24,85.6,178,285.28,280.23,464.23,338.38,194.1,63.07,400.93,81.29,604.08,72.78q36.62-1.53,73.17-4.24c180.27-13.32,362.13-46.14,523.2-128.18,70-35.67,136.13-81,188-140,65.64-74.81,105.84-168.55,136-263.4,20.67-65,37.27-133.14,30-201s-7.66-150.72-68.22-182.18c-29.71-15.44-50.07-31.34-81.88-41.8-66.39-21.85-153.21-60.94-194.12-117.61-37-51.29-79-91.29-112.11-145.17C1618.08,670.41,1473.12,591.39,1325.65,584.07Zm270,598.26a100.37,100.37,0,0,1-16.54-5.93l-1.94-.83a72.05,72.05,0,0,1-13.53-7.42,68.55,68.55,0,0,1-11.39-9.89,97.5,97.5,0,0,1-7.32-9.13,113.25,113.25,0,0,1-8.18-13.12,120.06,120.06,0,0,1-7.45-18.45,52.86,52.86,0,0,1-1.47-6.24l-.33-1.67c-.44-2.19-.84-4.43-1.21-6.59l-.27-1.5c-1.09-6.23-2-12.86-2.63-20.27a70.78,70.78,0,0,1,.31-15.11l.29-2.25c.72-5.7,1.47-11.6,3.49-17a87,87,0,0,1,8.63-17.71,81.7,81.7,0,0,1,12.59-15.16,86.41,86.41,0,0,1,15.7-11.68,127.55,127.55,0,0,1,17.77-8.2,112.59,112.59,0,0,1,15.23-4.76c2.18-.51,4.59-1,7.35-1.39l1.47-.22c3.39-.53,6.89-1.07,10.34-1.31,1.63-.11,3.3-.17,5-.17a76.92,76.92,0,0,1,14.68,1.44,74.11,74.11,0,0,1,14.63,4.44c3.85,1.61,7.61,3.21,11.24,5.06,2.08,1.06,4,2.24,6.3,3.67a122.16,122.16,0,0,1,15.69,11.85,94.1,94.1,0,0,1,11.59,11.35,95.58,95.58,0,0,1,10.75,16,79.4,79.4,0,0,1,4.57,10.65c.93,2.7,1.63,5.45,2.31,8.1a123.1,123.1,0,0,1,3,19.47,146.48,146.48,0,0,1,.62,15.88,120.08,120.08,0,0,1-1.81,19.21,70.7,70.7,0,0,1-5.91,18.16,82.62,82.62,0,0,1-10.27,15.66,62.42,62.42,0,0,1-10.54,10.58c-5.41,4.19-10.35,7.91-15.09,11.35a80.47,80.47,0,0,1-13.13,8l-.13.06c-5.71,2.68-11.62,5.45-17.77,7.09a57.17,57.17,0,0,1-7.28,1.39l-1.13.16a51.66,51.66,0,0,1-7.12.67,10.41,10.41,0,0,1-1.36-.12l-.37-.05-.87-.09a24,24,0,0,1-5.36-.91c-.5-.2-1-.38-1.53-.56s-1.07-.36-1.59-.57c-.72,0-1.44.07-2.16.08h-1.19a73.48,73.48,0,0,1-16.67-2Zm-852.9,75.08a93.55,93.55,0,0,1-11.62-2,54,54,0,0,1-10.36-4,65.07,65.07,0,0,1-6.82-3.68,185.38,185.38,0,0,1-16.26-12c-4.18-3.38-8-6.78-11.51-10.11a120.94,120.94,0,0,1-10.29-11.36c-2.23-2.77-4.58-5.73-6.65-8.8a50.91,50.91,0,0,1-3.86-7c-.79-1.68-1.72-3.68-2.61-5.76-.37-.68-.73-1.39-1-2.11a60.44,60.44,0,0,1-3.63-9.69l-.22-.86c-.6-2.36-1.22-4.78-1.71-7.21A119.49,119.49,0,0,1,654,1153a52.61,52.61,0,0,1,1.28-13.64,57.7,57.7,0,0,1,4.31-11.9c2.74-5.67,6.56-10.53,10.57-15.42,6.67-8.16,14.82-15,23.29-21.9,7.92-6.45,18.59-14.48,30.89-19.34,8.52-3.37,18.27-6.06,30.66-8.44,2.14-.41,5-.94,7.86-1.41l.61-.09a81.08,81.08,0,0,1,10.29-1.2h.3c1.12,0,2.23-.08,3.34-.08a32.94,32.94,0,0,1,3.95.21l1.33.16a42.78,42.78,0,0,1,11.19,2.31,101.83,101.83,0,0,1,11.55,5.54,66.69,66.69,0,0,1,9,6.26,122.64,122.64,0,0,1,11.49,10.43c1.89,1.94,3.8,4,5.68,6.07,2.24,2.49,4.29,5.24,6.27,7.9l.53.71c3.72,5,6.46,8.85,8.89,12.54a106.48,106.48,0,0,1,7.78,13.19,112.43,112.43,0,0,1,4.44,10.88,54.45,54.45,0,0,1,1.87,7.43,157.71,157.71,0,0,1,2.6,19.91,76.37,76.37,0,0,1-1.3,19.2,41.84,41.84,0,0,1-2.06,7.64,84.55,84.55,0,0,1-4.78,10.52c-3.46,6.34-8.25,11.71-12,15.69a116.82,116.82,0,0,1-11.22,10.24c-5.73,4.64-10.63,8.39-15.41,11.78a94.19,94.19,0,0,1-13.38,8c-.82.4-1.67.75-2.49,1.09l-1.13.46-.21.1c-2.18.92-4.43,1.87-6.71,2.66L792,1251c-2,.68-4,1.39-6,2a136,136,0,0,1-19.45,3.69,153.18,153.18,0,0,1-16.25,1.29h-.7a58.05,58.05,0,0,1-6.87-.47Z"/><path class="cls-5" d="M1222.41,557.93c-4.45.25-8.92.4-13.37.78l-15.17,1.3c-4.86.42-9.72,1.16-14.57,1.74-5.64.67-11.27,1.52-16.9,2.31-8.8,1.23-17.56,2.7-26.31,4.29-9,1.64-18,3.63-27,5.7s-18,4.88-26.83,7.73c-8.57,2.76-16.92,6.28-25.28,9.6-8.84,3.52-17.55,7.4-26.11,11.52-3.56,1.71-7.14,3.34-10.57,5.28l-8.13,4.61c-1.68,1-3.45,1.81-5.05,2.87l-13.45,9c-3.89,2.59-7.63,5.4-11.43,8.11-7,5-14,9.91-20.89,15-7.89,5.91-15.88,11.66-23.44,18l-11.54,9.62c-4.16,3.48-8.08,7.3-12.11,10.94-6.21,5.61-12.39,11.32-18.36,17.19-12.7,12.48-25.46,24.93-37.4,38.15-6.39,7.07-12.78,14.12-19,21.38q-9.51,11.16-19,22.39c-12.34,14.69-24.43,29.6-36.48,44.52-6.32,7.82-12.33,15.85-18.35,23.88-5.64,7.52-11.39,14.94-17.12,22.38l-.58.74q-15.84,18.84-31.62,37.74c-4.91,5.88-9.48,12.06-14.21,18.09-4.31,5.51-8.49,11.13-12.69,16.72-5.31,6.64-10.63,13.24-16.11,19.74q-9.48,11.25-19.06,22.42c-12.27,14.35-24.18,29-36,43.69-5.27,6.54-10.84,12.87-16.26,19.29-1,1.17-2.1,2.25-3.15,3.37l-6.47,6.92c-2.6,2.78-5.19,5.56-7.8,8.33-6.72,7.11-13.45,14.21-20.11,21.37L554.86,1105c-3.57,3.83-7.37,7.46-11.05,11.18-6.68,6.76-13.84,13.1-20.95,19.4-7.45,6.62-15.07,13.06-22.46,19.75s-14.68,13.7-22.31,20.23c-3.87,3.31-7.74,6.62-11.66,9.88-3.11,2.59-6.28,5.08-9.47,7.55-13.62,9.77-27.43,19.28-41.09,29-7.43,5.28-14.65,10.85-22.11,16.09a230.29,230.29,0,0,1-20.81,13c-8.72,4.81-17.49,9.47-26.33,14.07-7,3.62-14,7.16-20.94,10.8-7.6,4-15.19,8.09-23,11.7s-15.55,7.1-23.39,10.54l-10,3.9c-2.75,1.07-5.56,1.9-8.37,2.79-7.17,2.26-14.46,4.55-21.89,5.78-10.6.94-21.27-.42-31.78-1.81-1.85-.25-4.08,1-5.34,2.21a7.57,7.57,0,0,0,0,10.69c1.56,1.56,3.25,1.93,5.34,2.21a231.56,231.56,0,0,0,28.18,2.53c7.16.07,14.16-1.76,21.05-3.5,4.77-1.21,9.48-2.61,14.21-4,4.35-1.27,8.58-3,12.83-4.6,4.43-1.6,8.75-3.53,13.11-5.3,8.64-3.53,17.14-7.38,25.6-11.3,7.74-3.59,15.37-7.44,23.06-11.14q12.7-6.12,25.36-12.31c4.32-2.11,8.56-4.39,12.84-6.58,3.79-2,7.57-4,11.23-6.19,4-2.4,8-4.82,12-7.38s7.78-5.31,11.63-8c14.49-10.22,29.48-19.72,44.1-29.75a434,434,0,0,0,43.05-34.25q11-9.84,22.28-19.45c6.38-5.44,12.87-10.74,19.13-16.31q5.45-4.85,10.81-9.78c3.56-3.29,7-6.72,10.41-10.14,6.53-6.48,12.76-13.24,19.08-19.93,5.54-5.87,11.19-11.63,16.74-17.47l9.59-10.11c2.37-2.5,4.84-4.94,7.08-7.55,5.4-6.29,10.91-12.5,16.16-18.9,5.66-6.92,11.26-13.9,17-20.72,5.63-6.63,11.21-13.3,16.91-19.86s11.43-13.11,17.09-19.7c6-6.92,11.86-13.85,17.63-20.91,5.13-6.26,10-12.7,15-19.12,6-7.47,11.81-15,18-22.3q11.08-13.08,22.2-26.15c2.66-3.12,5.39-6.19,7.92-9.42l12.49-16c6-7.71,11.86-15.53,17.75-23.33,11.22-13.79,22.33-27.7,33.8-41.27,6-7,11.86-14.09,17.85-21.07s12.08-14.23,18.37-21.13,12.79-14,19.4-20.84L898.56,740c3.18-3.29,6.57-6.4,9.85-9.59,7-6.78,14.05-13.41,21.16-20,2.64-2.46,5.35-4.84,8-7.24,3.29-2.94,6.51-6,9.91-8.77L961,683.27c6.35-4.71,12.68-9.44,19.11-14q12.68-9,25.37-18c3.36-2.37,6.85-4.56,10.29-6.82l5.95-3.9c1.61-1.06,3.4-1.91,5.08-2.84,3.74-2.08,7.43-4.41,11.31-6.23l14-6.59c17.53-7.33,35.2-14.37,53.63-19.13,5.24-1.36,10.47-2.66,15.76-3.81s10.56-2.19,15.86-3.21c9.39-1.81,18.87-3.16,28.32-4.56,4.06-.55,8.11-1.12,12.18-1.56,5.42-.59,10.84-1.36,16.28-1.76,11.3-.82,22.58-1.65,33.92-1.77l9.32-.11c2.62,0,5.26.16,7.88.25,5.73.18,11.42.5,17.15.9,11.26.77,22.47,2,33.68,3.25,4.37.6,8.75,1.19,13.1,1.89q10.8,1.75,21.57,3.54c12.47,2.07,24.91,4.4,37.18,7.43q19.17,4.74,38.21,9.94c6.2,1.68,12.35,3.71,18.42,5.83,2.94,1,5.93,2,8.83,3.14l8,3.18,9,4.1c1.56.7,3,1.63,4.54,2.44l6,3.21c3.69,2,7.23,4.32,10.84,6.47s7.07,4.34,10.6,6.51c7,4.3,13.77,8.91,20.56,13.52,5.2,3.54,10.23,7.27,15.23,11.07l7.52,6.42c2.46,2.11,4.73,4.47,7.07,6.7,4.46,4.23,8.65,8.74,12.8,13.27s8.29,9.09,12.23,13.81c4.11,4.93,8.11,9.9,12.06,14.95q5.1,6.63,10.21,13.25c5.31,7.1,10.62,14.19,15.54,21.57s9.48,14.86,14,22.45c4.37,7.39,8.94,14.76,14,21.71q8.11,11.18,16.53,22.12c5.61,7.33,11.23,14.61,16.3,22.33,4.87,7.41,9.44,15,13.94,22.67,9.1,15.43,16.82,31.55,25.13,47.4,6.32,12.07,13.2,23.78,20.43,35.32,3.14,5,6.65,9.84,10.23,14.55,5.1,6.71,10.31,13.34,15.53,20q7.55,9.78,15.11,19.53c2.61,3.36,5.25,6.68,8.06,9.87a124.27,124.27,0,0,0,10.19,10.21c4.11,3.72,8.61,7.07,13,10.4,3.72,2.8,7.47,5.54,11.34,8.13q10.26,6.88,21,13c6.66,3.81,13.3,7.7,20.08,11.29a264.68,264.68,0,0,0,27.21,12.14c8.49,3.36,17.2,6.21,25.82,9.21a96,96,0,0,0,9.94,3.22c1.12.26,2.25.43,3.38.62a76.23,76.23,0,0,0,9.14,1.21,14.36,14.36,0,0,0,2.27-.08,22,22,0,0,0,22-22l-.78-5.85a22,22,0,0,0-5.67-9.73,73.57,73.57,0,0,0-11.2-7.92,144.46,144.46,0,0,0-18-7.93c-5.46-2.07-11-3.91-16.45-6q-5.6-2.13-11.11-4.38c-10.89-4.88-21.17-10.95-31.51-16.87a329.93,329.93,0,0,1-31.58-20.58c-1.27-1-2.52-2-3.72-3.11-2.82-2.52-5.49-5.1-8.15-7.78-4.9-4.94-9-10.67-13.37-16.09-7.72-9.66-15.52-19.27-23.18-29-1.42-1.87-2.83-3.76-4.19-5.68-2.44-3.45-4.74-7-7-10.48-4.22-6.48-8.25-13.12-12.17-19.78-7.81-13.23-14.62-27-22.3-40.33-7.78-13.48-16-26.72-24.76-39.59-5.11-7.52-10.84-14.57-16.5-21.67q-6.67-8.37-13.26-16.79c-4.83-6.39-9.54-12.85-13.86-19.61-4.92-7.71-9.79-15.44-15-22.94-11.08-15.85-23.43-30.69-35.56-45.74a417,417,0,0,0-37.16-40.43c-13.6-12.92-29-23.71-44.76-33.74-8.21-5.21-16.57-10.13-25-15-3.74-2.16-7.52-4.25-11.29-6.35-4.15-2.31-8.42-4.38-12.67-6.5-2.38-1.19-4.87-2.14-7.32-3.16l-8-3.34c-4.12-1.73-8.39-3.14-12.59-4.68s-8.43-2.71-12.62-4.06c-4.54-1.45-9.21-2.57-13.81-3.85s-9.31-2.29-14-3.43-9.25-2.15-13.88-3.22c-8.91-2.07-17.87-3.81-26.86-5.52s-18.41-2.92-27.61-4.23c-9.62-1.37-19.24-2.74-28.89-3.85q-13.8-1.58-27.63-2.56c-8.94-.65-17.9-1.31-26.87-1.46-4.34-.08-8.69-.15-13-.15-4.79,0-9.58.09-14.38.37Z"/></g><path class="cls-6" d="M463.66,677.88c-1.81,2-3.56,4.1-5.34,6.14-3.35,3.84-6.9,7.49-10.29,11.29-7.48,8.41-14.93,16.81-22.1,25.49S411.66,738,404.28,746.36c-6.85,7.77-14.18,15.2-21.61,22.41-3.36,3.26-6.68,6.55-10.22,9.6a88.38,88.38,0,0,1-13.35,7.8c-3.94,1.93-6.9,6.58-8,10.69a17.69,17.69,0,0,0,12.68,21.59l4.56.57a17.85,17.85,0,0,0,9.05-2.56,108.07,108.07,0,0,0,9.56-5.1,104.8,104.8,0,0,0,12.22-9.18c3-2.5,5.83-5.15,8.7-7.77,4.22-3.85,8.37-7.75,12.54-11.66,7.84-7.34,15.37-15,22.85-22.74,7.68-7.93,15.43-15.75,23.38-23.41,7.61-7.33,16.33-13.36,24.07-20.53,2.13-2,4.29-3.92,6.24-6.07,3.49-3.87,6.38-8.22,7.46-13.39.77-3.68,1.15-8.85-.16-12.51a58.31,58.31,0,0,0-2.78-6.38,19.37,19.37,0,0,0-18.61-9.22c-.74,0-1.48.08-2.22.17a27.93,27.93,0,0,0-17,9.21Z"/><path class="cls-6" d="M440.65,728.33c-1.8,1.86-3.3,4.9-3,7.57a65.94,65.94,0,0,0,1.38,9.28,36.29,36.29,0,0,0,4.28,9.63,89.48,89.48,0,0,0,8.83,11.61c2.73,3.25,5.47,6.49,8.27,9.68,5.47,6.23,11,12.39,16.34,18.71,2.57,3.22,5.15,6.45,7.51,9.81q4.69,6.72,9.21,13.55c3,4.56,5.83,9.23,8.91,13.73s6.5,9,9.87,13.4c7.85,10.29,15.51,21,21.14,32.67,1.28,3.26,2.45,6.55,3.53,9.9a72.71,72.71,0,0,1,2.25,9.52,61.43,61.43,0,0,1-.07,9.1,177.61,177.61,0,0,1-8.87,32.32c-.75,1.63-1.53,3.23-2.43,4.77-.66.7-1.36,1.38-2.07,2-3.64,2.57-7.44,4.9-11.29,7.19-3.52,2.1-7,4.08-10.71,5.86a46.09,46.09,0,0,1-5.05,1.7c-1.93.5-3.85.94-5.8,1.32q-3.08.28-6.18.35a55,55,0,0,1-5.74-.21,49.28,49.28,0,0,1-4.95-1.29c-.64-.31-1.28-.63-1.91-1C473,959,472,958.53,471,958c-.42-.75-.82-1.5-1.21-2.26a22.84,22.84,0,0,0-39.47.66l-2.18,5.42a22.78,22.78,0,0,0,.13,11.93c.38,2.08.74,4.17,1.11,6.25.12.87.24,1.74.39,2.61a31.08,31.08,0,0,0,3.75,11.07,38.56,38.56,0,0,0,5.57,7.19,12,12,0,0,0,1.11,1,62.75,62.75,0,0,0,6.88,5.09c4,2.64,8.73,4.31,13.19,6a33.26,33.26,0,0,0,7.06,1.93c5,.67,9.91,1.35,14.92,1.59,7.51.34,15.12-.92,22.48-2.22s14.22-4.27,21.08-7.34a101.88,101.88,0,0,0,13.5-7.45c4.74-3,9.45-6.1,14-9.44a69.22,69.22,0,0,0,10.27-8.8,64.14,64.14,0,0,0,7.7-10.21,66.62,66.62,0,0,0,4.51-10.4,138.73,138.73,0,0,0,4.55-15.74c1.23-5,2.19-10.08,2.93-15.16.69-4.67,1.28-9.35,1.59-14.06a50.38,50.38,0,0,0,.2-7.37,138.63,138.63,0,0,0-2-16,38.92,38.92,0,0,0-1.77-5.55c-.41-1.15-.83-2.32-1.31-3.45-1.72-4.07-3.4-8.14-5.42-12.07-1.35-2.63-2.73-5.21-4.16-7.8-1.29-2.33-2.91-4.52-4.41-6.7-2.22-3.23-4.74-6.33-7.24-9.32q-5.52-6.57-11.2-13c-7.08-8-14.8-15.29-22-23.1-3.66-4-7.35-7.88-10.86-12s-6.8-8.07-10.4-11.92c-7.51-8-15.29-15.73-23.12-23.44-5.9-5.8-11.91-11.58-17.22-17.94a40,40,0,0,1-3.62-5.66,24.19,24.19,0,0,1-.82-3l-.18-1.64c-.3-3-1.06-5.57-3.31-7.73a10.92,10.92,0,0,0-7.58-3q-.63,0-1.26.09a10.9,10.9,0,0,0-6.46,3.23Z"/><path class="cls-6" d="M649.07,814.75a22.86,22.86,0,0,0-3.82,1.52c-2.25,1-3.78,3.29-5.13,5.2a28.46,28.46,0,0,0-1.29,3.07,11.62,11.62,0,0,0-.41,1.91,22.93,22.93,0,0,0-.33,4.11,18.91,18.91,0,0,0,.89,4.89,18.23,18.23,0,0,0,3.49,6.4c.57.72,1.21,1.39,1.79,2.1,1,.79,2,1.55,3,2.27,1.13.48,2.26.94,3.4,1.38a13.93,13.93,0,0,0,10.12-1.35c3.93-2.14,6.46-6.29,7.64-10.49a15.65,15.65,0,0,0-.07-7.42,17.9,17.9,0,0,0-2.61-6,21.23,21.23,0,0,0-6.75-6.21l-3.21-1.3a21,21,0,0,0-3.35-.48,11.66,11.66,0,0,0-1.87.09,11,11,0,0,0-1.5.28Z"/><path class="cls-6" d="M687.25,516.11a35.12,35.12,0,0,0-6.11,2.64,30,30,0,0,0-6.43,4.82,46.8,46.8,0,0,0-7.67,10c-.93,1.5-1.76,3.07-2.62,4.62A89.91,89.91,0,0,0,658.05,553a109.14,109.14,0,0,0-4.15,15.25A167.61,167.61,0,0,0,651.58,588a128,128,0,0,0,0,16.15c.16,2.55.35,5,.69,7.55.5,3.69.87,7.45,1.59,11.1,1.05,5.47,2.08,10.94,3.56,16.31.78,2.83,1.58,5.6,2.53,8.37s2.1,5.46,3.25,8.17a164.3,164.3,0,0,0,8.15,17A166.31,166.31,0,0,0,680,686.91c3.84,5.43,8,10.64,12.21,15.74a137.67,137.67,0,0,0,10.55,11.58,54.14,54.14,0,0,0,9.14,6.66q1.9,1.17,3.84,2.26a82.16,82.16,0,0,0,10.53,4.62,44.77,44.77,0,0,0,7.63,2,95,95,0,0,0,12.24,1.56,81.44,81.44,0,0,0,15.76-.47c2.79-.34,5.56-.78,8.33-1.24,4.71-.79,9-2.64,13.3-4.62a75.52,75.52,0,0,0,9.88-5.66c1-.63,1.88-1.32,2.81-2a62,62,0,0,0,7.1-5.83,59.87,59.87,0,0,0,6.49-8.21c1.44-2,2.92-4,4.28-6.14a42.35,42.35,0,0,0,3.42-6.14c1.18-2.7,2.25-5.51,3.31-8.27a72.31,72.31,0,0,0,2.32-7.32,122.35,122.35,0,0,0,3-15.28,137.72,137.72,0,0,0,1.57-20.37,110.41,110.41,0,0,0-.81-11.35A62.31,62.31,0,0,0,825,617.56a47.12,47.12,0,0,0-3.08-7.07,16.74,16.74,0,0,0-2.62-3.63,19,19,0,0,0-32.05,1.79,33.33,33.33,0,0,0-2.81,6.52,52.88,52.88,0,0,0-1.09,7.33,33.36,33.36,0,0,0-.1,5.29c.16,3.66.37,7.33.36,11a177.08,177.08,0,0,1-1.13,18.71,101.59,101.59,0,0,1-3.82,17.71,69.09,69.09,0,0,1-4.77,8.47,43,43,0,0,1-4.26,4.17,64.39,64.39,0,0,1-7.43,4.68,66.42,66.42,0,0,1-10.57,2.73,76.34,76.34,0,0,1-12.65.08,52.32,52.32,0,0,1-7.07-1.8,58.6,58.6,0,0,1-8.16-4.36,140.18,140.18,0,0,1-18.18-18.28A121.3,121.3,0,0,1,696.33,657c-1.71-3-3.39-6-5-9.12-1.17-2.28-2.25-4.61-3.33-6.94-1-2.53-1.93-5.06-2.78-7.65-1-3.22-1.93-6.48-2.85-9.73-.86-3.05-1.42-6.22-2.12-9.31-.48-2.12-.79-4.3-1.11-6.47-.25-2.69-.51-5.37-.76-8.06s-.19-5.65-.28-8.45.15-5.44.23-8.15c.07-2.3.34-4.61.56-6.91.21-1.49.42-3,.64-4.47.28-1.94.8-3.88,1.21-5.8s.86-3.6,1.33-5.39c.85-3.17,1.68-6.34,2.81-9.43a66,66,0,0,1,5.68-11.06,25.25,25.25,0,0,1,2.22-2.41c.67-.46,1.35-.9,2.06-1.3a27,27,0,0,1,2.66-.63,26,26,0,0,1,4,0l2.6.41c2.81.46,5.33.38,7.85-1.14a10.22,10.22,0,0,0,3.46-14,9.9,9.9,0,0,0-6.17-4.6c-4.19-.69-8.45-1.57-12.7-1.44-1.82,0-3.67.13-5.49.36a25.53,25.53,0,0,0-3.78.75Z"/></g><g id="Draw_Layer-2" data-name="Draw Layer"><path class="cls-2" d="M777.29,1060.45c-27.51-2-56.61,10.3-79.82,26.78-17.35,12.33-33.69,27.88-40.33,48.11-22,67.15,56.32,132.32,118.29,119.24,22.11-4.67,43.58-14,60.22-29.32s28-36.88,28.55-59.47-9.71-44.41-22.73-63c-10.2-14.56-22.67-28.15-38.74-35.74A71.47,71.47,0,0,0,777.29,1060.45Z"/><path class="cls-2" d="M1621.45,987.67a102.08,102.08,0,0,0-54,12.6c-14.73,8.29-27.48,20.46-35.23,35.48-37.34,72.39,28.63,165.88,109.33,147.66,37.14-8.39,67.74-40.33,74.81-77.74s-9.65-78.17-40.77-100.09A101.34,101.34,0,0,0,1621.45,987.67Z"/><path class="cls-5" d="M979.54,520.55c-5.27.33-10,2.1-14.73,4.4a48.88,48.88,0,0,0-10,6.65c-3.52,3-6.34,6.76-9.06,10.43A115,115,0,0,0,934.44,562,220.06,220.06,0,0,0,925,585.84a193.94,193.94,0,0,0-9.57,50.26c-1,16.91,1.68,34,6.63,50.15a192.79,192.79,0,0,0,9.39,24.11,155.63,155.63,0,0,0,11.25,20.35c9.14,14,20.45,26.25,32.51,37.71a194,194,0,0,0,20.38,16.79c7.26,5.23,15.27,9,23.49,12.46a120.56,120.56,0,0,0,23.46,6.91A121.81,121.81,0,0,0,1070,807a153.92,153.92,0,0,0,26.94-3.57c3.81-.8,7.57-1.81,11.31-2.88,2.38-.69,4.78-1.35,7.11-2.19,6.27-2.26,12.6-4.38,18.79-6.86a184.79,184.79,0,0,0,24-11.36,86.81,86.81,0,0,0,19.38,14.21,106.61,106.61,0,0,0,24.17,9c3.7.94,7.45,1.64,11.22,2.21a101.67,101.67,0,0,0,15.28,1.32,89.13,89.13,0,0,0,11.65-.85A142.81,142.81,0,0,0,1255,803.3a159.5,159.5,0,0,0,24.52-8.69,145.47,145.47,0,0,0,41.35-26.79q1.66-1.53,3.22-3.17c1.56,1.08,3.17,2.09,4.81,3a79,79,0,0,0,11.78,5.14,74.36,74.36,0,0,0,12.18,3.23,93.2,93.2,0,0,0,14,1.44,85.88,85.88,0,0,0,14.58-1.11,115,115,0,0,0,42.62-17.08c3.13-2.23,6.22-4.47,9.21-6.88A124,124,0,0,0,1447,739.56a12.47,12.47,0,0,0,3.53-8.54,12.13,12.13,0,0,0-3.53-8.54c-4.56-4.56-12.56-4.79-17.09,0a136.62,136.62,0,0,1-10.87,10.11c-2.18,1.61-4.37,3.16-6.62,4.68a122.62,122.62,0,0,1-19.29,10.37,92.53,92.53,0,0,1-19.61,5.63,59.45,59.45,0,0,1-31.32-4.06c-1.22-.56-2.42-1.17-3.59-1.82q1.5-2,2.93-4c5.64-8,9.33-17.26,12.45-26.48a50.6,50.6,0,0,0,2.35-11.09,27.72,27.72,0,0,0-.07-5.76,51.85,51.85,0,0,0-1.47-8.22,30.11,30.11,0,0,0-7.09-12.61,26.07,26.07,0,0,0-5.48-4.2,27.72,27.72,0,0,0-4.33-1.92,23.83,23.83,0,0,0-3.19-.95,53.76,53.76,0,0,0-7.23-1,28.79,28.79,0,0,0-7.46.76,33.07,33.07,0,0,0-6.69,2.3,27.42,27.42,0,0,0-6.4,4.07,24.51,24.51,0,0,0-7,9.38,49.81,49.81,0,0,0-2.51,6.79,63.48,63.48,0,0,0-1.49,8.68,50.31,50.31,0,0,0-.13,11,71.38,71.38,0,0,0,2.6,13.82,81.42,81.42,0,0,0,4.82,12.07c.84,1.75,1.74,3.48,2.73,5.15a109.72,109.72,0,0,1-10.82,9.85,150,150,0,0,1-29.57,17.13,129.77,129.77,0,0,1-28.63,8.2,86.22,86.22,0,0,1-19,.07,113.29,113.29,0,0,1-24.15-6.37,75.66,75.66,0,0,1-13.2-7.69c-.45-.36-.89-.73-1.33-1.11l4.58-3.66a94,94,0,0,0,14.56-14.75,96.5,96.5,0,0,0,6.83-9.2l2.94-4.74a61.78,61.78,0,0,0,4.63-9.5,22.32,22.32,0,0,0,1.37-5.25c.28-1.87.55-3.68.66-5.55a33.61,33.61,0,0,0-.62-6.36c-.6-4.31-2.27-8.23-4.06-12.17a27.43,27.43,0,0,0-2.47-4.14,31.56,31.56,0,0,0-5.28-6.13,39.87,39.87,0,0,0-6.16-4.32,58.29,58.29,0,0,0-6.75-3,30.25,30.25,0,0,0-13.94-2.25,44.45,44.45,0,0,0-13,3c-2.48,1-4.9,2.07-7.27,3.3a42.92,42.92,0,0,0-6.83,4.7c-3.26,2.56-5.83,6.12-8.17,9.48a51.35,51.35,0,0,0-6.16,12.82,57.08,57.08,0,0,0-2.39,13.28,60,60,0,0,0,.81,14.22,52,52,0,0,0,2.91,10.82,96.74,96.74,0,0,0,4.14,9.38q-6.4,3.56-13.14,6.51c-5.69,2.32-11.47,4.38-17.23,6.52a162.38,162.38,0,0,1-31.9,8.31,110.22,110.22,0,0,1-24.76.09,125.16,125.16,0,0,1-27.15-7.26,116.31,116.31,0,0,1-10.79-5.49,108.7,108.7,0,0,1-10.89-7.41c-6.34-5-12.29-10.45-18.11-16.06a181.79,181.79,0,0,1-16.71-18.28,160.91,160.91,0,0,1-18.71-32.42,154.23,154.23,0,0,1-9.89-35,143.38,143.38,0,0,1,.36-34.33,195.63,195.63,0,0,1,12.6-45.79,117.94,117.94,0,0,1,12.52-22.89,43.26,43.26,0,0,1,5.12-5.36,44.25,44.25,0,0,1,6-3.49,25.76,25.76,0,0,1,3.31-1,79.11,79.11,0,0,1,9.61.29,10.41,10.41,0,0,0,7.55-3.13,10.66,10.66,0,0,0,0-15.09,11.12,11.12,0,0,0-7.55-3.13c-2.57-.16-5.14-.36-7.71-.36-.87,0-1.73,0-2.59.07Zm346.64,173.21c1,.22,2,.48,2.89.79l.5.28.34.35c.12.19.23.38.34.58a30.63,30.63,0,0,1,.78,3.14,34.45,34.45,0,0,1,.08,4.31,73.6,73.6,0,0,1-3.52,10.57l-1.58,3.66a67,67,0,0,1-5.29,9.68c-.11-.23-.22-.47-.32-.7a60.18,60.18,0,0,1-3.32-11.93,51.82,51.82,0,0,1,0-10,39.79,39.79,0,0,1,1.69-6.63c.34-.69.71-1.35,1.11-2,.19-.19.39-.39.59-.57.42-.27.86-.52,1.3-.75a28.28,28.28,0,0,1,2.74-.72c.56,0,1.13,0,1.69,0ZM1177.69,700c.51.13,1,.28,1.52.45a38.89,38.89,0,0,1,4.5,2.52c.16.14.3.29.45.44.39.64.76,1.3,1.1,2a34.42,34.42,0,0,1,1.13,4.09c0,.55,0,1.11,0,1.66s-.3,1.13-.48,1.69a60.36,60.36,0,0,1-4,6.21c-1,1.41-2,2.82-3,4.2A105.64,105.64,0,0,1,1162.19,740l-1.79,1.4c-.32-.63-.62-1.27-.92-1.92a35.58,35.58,0,0,1-2.81-19.1,25.85,25.85,0,0,1,5.35-12.95,34,34,0,0,1,3.07-3.17,35.78,35.78,0,0,1,4.49-2.4,40.56,40.56,0,0,1,6.28-1.81c.61,0,1.22,0,1.83,0Z"/><path class="cls-5" d="M887.34,935a30.51,30.51,0,0,0-4,1.32,54.55,54.55,0,0,0-7.16,3.29,30.87,30.87,0,0,0-3.17,2.14c-1.58,1.18-3.25,2.42-4.72,3.76-.88.82-1.81,1.6-2.66,2.46q-1.5,1.53-3,3a73.63,73.63,0,0,0-6.77,8.28c-2.17,3-4,6.2-5.88,9.36a12.53,12.53,0,0,0-1.55,8.33,61.82,61.82,0,0,0-3.11,10.13c-.89,4.37-1.62,9.75,0,14.07,1.27,3.41,3.27,6.58,6.67,8.22a15.17,15.17,0,0,0,6.55,1.73,17.7,17.7,0,0,0,5.51-.6,18.41,18.41,0,0,0,6-3,56.93,56.93,0,0,0,4.84-3.8c1.12-1,2.22-2,3.29-3,3.86-3.75,7.51-7.7,11-11.75,3.77-4.33,7.46-8.7,11-13.2,2.25-2.86,4.43-5.78,6.41-8.82q1.4-2.16,2.59-4.42a33,33,0,0,0,2-4.52,21.21,21.21,0,0,0,.85-4.74c.82-6.91-3-13.7-8.92-17.14a16.51,16.51,0,0,0-8.5-2.11,32.09,32.09,0,0,0-7.33,1Zm-30.78,53.41h0l-.2,0,.21,0Z"/><path class="cls-5" d="M1413,929.68a13,13,0,0,0-9.08,3.73,18.4,18.4,0,0,0-2.48,3.27,15.26,15.26,0,0,0-1.82,6.67,27.72,27.72,0,0,0,1.13,8.37,35.13,35.13,0,0,0,1,3.47,76.8,76.8,0,0,0,5.54,13,66.32,66.32,0,0,0,5,7.37,36.82,36.82,0,0,0,2.49,5.86,33.14,33.14,0,0,0,3.8,5.16,26.53,26.53,0,0,0,4.25,4,33.69,33.69,0,0,0,5.82,3.88c.47.23.94.45,1.42.66a49.07,49.07,0,0,0,6.42,4.33c1.5.84,3.13,1.52,4.7,2.23,2.3,1.05,4.66,2,7.05,2.87a24.89,24.89,0,0,0,5,1.22,28.18,28.18,0,0,0,5.06.46,18.69,18.69,0,0,0,7.69-2c2.8-1.26,4.6-3.48,6.35-5.91,1.28-1.78,1.79-4.89,1.92-7a20.88,20.88,0,0,0-.54-4.91,27,27,0,0,0-1.76-4.43c-.2-.45-.38-.9-.6-1.34-.34-.68-.66-1.39-1-2a67.5,67.5,0,0,0-7.1-10,72.59,72.59,0,0,0-6.58-6.89c-2.5-2.23-5-4.39-7.6-6.56l-1.31-1.08c-1.69-1.78-3.43-3.51-5.21-5.23a146.13,146.13,0,0,0-17.28-14.54,43,43,0,0,0-4.14-2.55,16.2,16.2,0,0,0-8-2.08Z"/><path class="cls-5" d="M1124.74,880.7a11.77,11.77,0,0,0-5.56,7.22c-1.88,8.79-3.12,17.66-4.3,26.56q-.84,6.07-1.64,12.17c-1,7.56-2.16,15.1-3.27,22.64-.59,4-1.18,8-1.93,11.94-.35,1.85-.79,3.72-1,5.58-.28,2-.62,4.06-.79,6.1a11.68,11.68,0,0,0-.08,2.13,13.17,13.17,0,0,0,6.8,11.56,13.6,13.6,0,0,0,10.11,1.32,13.21,13.21,0,0,0,9.16-9.16,48,48,0,0,0,.61-6c.18-1.95.3-3.9.48-5.84.26-2.72.53-5.43.81-8.15q.83-8.27,1.83-16.51c1.32-10.51,2.5-21,3.77-31.57.79-5.49,1.66-11,2.82-16.39a12.62,12.62,0,0,0-1.22-9.32,12.2,12.2,0,0,0-7.23-5.55,12.16,12.16,0,0,0-9.32,1.22Z"/><path class="cls-5" d="M938.62,1137.9l-2.29,1.77a11.27,11.27,0,0,0-2.91,5c-.82,5.88-1.57,11.76-2.3,17.64-.53,3.46-1.09,6.9-1.71,10.35-.71,4-1.9,7.9-3,11.8a168.16,168.16,0,0,1-6.7,18.72c-2.15,4.71-4.37,9.38-6.72,14-1.1,2.17-2.23,4.32-3.33,6.48-.52,1-1,2.06-1.51,3.1-1.16,2.47-2.83,5.48-2.47,8.33h0a10.63,10.63,0,0,0,.38,2.85,10.81,10.81,0,0,0,13.18,7.48,12.23,12.23,0,0,0,5.77-3.56,40.25,40.25,0,0,0,2.54-3.27,36.69,36.69,0,0,0,2.14-3.22c1.28-2.2,2.55-4.41,3.71-6.68,2.87-5.59,5.56-11.3,7.89-17.14,2-5,3.92-10,5.49-15.15.84-2.74,1.66-5.46,2.39-8.22s1.42-5.73,2-8.64c1-5,1.72-10.19,2.34-15.27q.76-6.36,1.58-12.71l.12-.87c.13-1,.27-2,.4-3a11.25,11.25,0,0,0-1.54-5.71,11.4,11.4,0,0,0-6.77-5.2,11.17,11.17,0,0,0-3-.4,11.31,11.31,0,0,0-5.72,1.54Z"/><path class="cls-5" d="M1422.73,1164.1c-.34.4-.68.77-1,1.12a39.35,39.35,0,0,1-3.63,1.78l3.19-1.34h0a161.41,161.41,0,0,0-15.17,7.31q-6.45,3.57-13,6.84c-4,2-7.87,4-11.78,6.06-3.57,1.86-7.24,3.55-10.94,5.15-9.18,3.7-18.64,6.6-28,9.82-9.76,3.35-19.56,6.71-29.45,9.65-5.39,1.59-10.81,3-16.32,4.18-5,1.07-10.09,1.86-15.14,2.7-10.51,1.74-21.06,3.3-31.58,5-8.22,1.36-16.41,2.95-24.65,4.17-9.72,1.21-19.47,2.1-29.23,2.92-11.1.94-22.23,1.5-33.37,1.46-10.33,0-20.68-.24-31-.86-5.73-.35-11.46-.77-17.19-1.22-5-.4-10-.63-15-1.06-6.34-.54-12.64-1.29-18.95-2.07-10.06-1.44-20-3.32-30-5.22-5-1-10-2.09-15-3.25-5.15-1.21-10.36-2.25-15.46-3.68s-10.13-2.86-15.24-4.14-10.32-2.43-15.47-3.7c-10.38-2.56-20.69-5.34-30.6-9.43l-1.61-.66c-5.84-2.55-11.55-5.38-17.26-8.21-3.43-1.7-6.91-2.45-10.71-1.4a13.91,13.91,0,0,0-9.71,17.1,13.54,13.54,0,0,0,6.39,8.31c10.58,5.25,21.21,10.51,32.35,14.5,10,3.58,20.4,5.92,30.74,8.22s20.22,5.24,30.4,7.53c10.76,2.42,21.5,4.77,32.33,6.82,5.08,1,10.18,1.91,15.29,2.71,6.61,1,13.24,1.86,19.87,2.71,10.63,1.37,21.34,1.89,32,2.77s21.47,1.41,32.22,1.74c5.34.17,10.67.25,16,.35s10.59-.13,15.89-.32c10.78-.39,21.57-.93,32.32-1.8,5.32-.43,10.64-.85,16-1.41,6.71-.7,13.39-1.73,20.07-2.75l3.23-.46c10.43-1.38,20.87-2.58,31.32-3.82,6.57-.78,13.18-1.48,19.7-2.63,5.5-1,10.93-2.17,16.34-3.51,10-2.49,19.91-5.52,29.75-8.59,10.09-3.17,20.33-5.85,30.17-9.79,6-2.39,12-4.88,17.76-7.74,4.46-2.19,8.94-4.33,13.41-6.51q3.66-1.79,7.24-3.77a58.32,58.32,0,0,0,9.4-6.78c5.88-5,11.13-11.12,13-18.8.33-1.31.61-2.63.92-4a12.65,12.65,0,0,0-5.72-14,12.34,12.34,0,0,0-6.27-1.69c-3.06,0-6.76,1.23-8.79,3.64Zm-1,1.34-.18.08h0l.18-.08Z"/><path class="cls-5" d="M1411.4,1097.68a14.51,14.51,0,0,0-8.63,6.63l-1.45,3.45a14.51,14.51,0,0,0,0,7.68c2.8,6.8,5.7,13.53,8.85,20.18,2.34,5,5,9.78,7.66,14.6s5.45,9.31,8.25,13.92c2.65,4.37,5.31,8.73,8.06,13,6.53,10.24,13.35,20.5,21.33,29.69,3.51,4,7.2,7.89,11,11.66a135.32,135.32,0,0,0,14.82,12.31c1.6,1.19,3.21,2.38,4.87,3.49a15.31,15.31,0,0,0,1.41.83c2.42,1.3,7,3,9.88,2.63,3.68-.45,6.24-.55,9.44-2.63a18.28,18.28,0,0,0,6.61-7,15.61,15.61,0,0,0-5-21,77,77,0,0,0-8.38-6.74c-2-1.53-4.11-3-6.15-4.56a194.55,194.55,0,0,1-15.84-13.53,188.12,188.12,0,0,1-15.36-17.19c-12.64-17.2-24.18-35.31-32.59-55-.09-.23-.19-.45-.29-.68l-.69-1.68c-.49-1.15-1-2.3-1.45-3.45a14.69,14.69,0,0,0-5.18-5.18,14.5,14.5,0,0,0-7.31-2,14.13,14.13,0,0,0-3.82.52Z"/></g></svg>