<svg xmlns="http://www.w3.org/2000/svg" viewBox="0 0 179.02 84.36"><defs><style>.cls-1{fill:#f3ae9f;}</style></defs><title>資產 7</title><g id="圖層_2" data-name="圖層 2"><g id="Draw_Layer" data-name="Draw Layer"><path class="cls-1" d="M133.87.41a14,14,0,0,0-2.32.93,9.77,9.77,0,0,0-1.26.72,12.94,12.94,0,0,0-2.88,2.59,13.27,13.27,0,0,0-1.56,2.27,22.54,22.54,0,0,0-1.17,2.77,26.49,26.49,0,0,0-1.12,4.22,37.6,37.6,0,0,0-1,8.84,24.83,24.83,0,0,0,.77,5.29,20.07,20.07,0,0,0,1.19,2.88,17.42,17.42,0,0,0,2.38,3.35,21.45,21.45,0,0,0,2.83,2.89c-.42.57-.85,1.14-1.28,1.7l1-1.26-1.66,2.15c-1.18,1.42-2.37,2.82-3.62,4.19a35.66,35.66,0,0,1-3.78,3.37,31.27,31.27,0,0,1-4.88,3,23.87,23.87,0,0,1-3.89,1.08,29.66,29.66,0,0,1-5.33,0l-.94-.2A45.76,45.76,0,0,0,107,43.65a37.58,37.58,0,0,0,.62-8.4,28.65,28.65,0,0,0-1.78-8.49c-1.64-4.27-4.52-8.44-9.31-9.39a8.88,8.88,0,0,0-5.81.91,10.5,10.5,0,0,0-3.81,3.47,19.87,19.87,0,0,0-3.14,9.18c-.48,4.42,1,8.81,2.55,12.9.44,1.16.92,2.3,1.4,3.45a37.58,37.58,0,0,0,2.36,4.81,21.71,21.71,0,0,0,2.39,3.29,22.85,22.85,0,0,1-1.34,2.16A42.38,42.38,0,0,1,86,62.9a34.37,34.37,0,0,1-5.65,3.31A34.9,34.9,0,0,1,73.54,68a36.52,36.52,0,0,1-7.75.11c-.82-.14-1.62-.31-2.41-.52.41-.6.81-1.22,1.17-1.87a35.58,35.58,0,0,0,2.62-7.24,49.65,49.65,0,0,0,1.67-8.09c.15-1.22.3-2.43.33-3.66a20.87,20.87,0,0,0-.88-6.52,18.12,18.12,0,0,0-4.08-7,15.78,15.78,0,0,0-3-2.42,11,11,0,0,0-5.61-1.74,9.62,9.62,0,0,0-4.37,1.37,10.36,10.36,0,0,0-3.27,2.76,19,19,0,0,0-2.51,4.16,22.62,22.62,0,0,0-1.6,5.76c-.3,1.9-.44,3.84-.55,5.76a22.38,22.38,0,0,0,.43,4.69,22.84,22.84,0,0,0,1.39,4.58,52.62,52.62,0,0,0,4.38,9.22c.32.49.66,1,1,1.45l-.91.78a27.76,27.76,0,0,1-4.52,2.66,63.31,63.31,0,0,1-13.53,3.92,31.45,31.45,0,0,1-6.65,0,34.23,34.23,0,0,1-6.59-1.74,22.48,22.48,0,0,1-3.5-2.09,34.46,34.46,0,0,1-4.19-4.18,22.63,22.63,0,0,1-2-3.35,24.25,24.25,0,0,1-1.13-4.61c-.12-1.25-.19-2.5-.24-3.76a3.65,3.65,0,0,0-3.61-3.61A3.64,3.64,0,0,0,0,56.47a41.42,41.42,0,0,0,1.22,9.27A21.69,21.69,0,0,0,3.3,70.41a25.69,25.69,0,0,0,3.45,4.53,27,27,0,0,0,8.06,6.26,33.37,33.37,0,0,0,10,2.88c6.28.85,12.71-.33,18.69-2.27,1.79-.59,3.58-1.16,5.34-1.86A29.75,29.75,0,0,0,57,74.84c.41.2.83.37,1.24.55a28.37,28.37,0,0,0,3.8,1.3,34.49,34.49,0,0,0,10.62.85,37.42,37.42,0,0,0,11.59-2.43,33,33,0,0,0,9.13-5.3A40.46,40.46,0,0,0,100.53,62c.1-.13.18-.26.27-.39.68.25,1.35.47,2,.66a31.19,31.19,0,0,0,5.86.8,26.24,26.24,0,0,0,5.94-.26,28.09,28.09,0,0,0,9.85-3.63,54.87,54.87,0,0,0,6.27-4.57,39.24,39.24,0,0,0,5.59-5.79c1.27-1.5,2.46-3.07,3.63-4.66a27.94,27.94,0,0,0,3.72,1.23,25.09,25.09,0,0,0,5.51.73,20.46,20.46,0,0,0,3.5-.35,26,26,0,0,0,3.59-.84,27.61,27.61,0,0,0,5.35-2.4A42,42,0,0,0,166.58,39a39.54,39.54,0,0,0,4.53-4.24c1.54-1.68,2.85-3.61,4.23-5.42l2.8-3.72a6.5,6.5,0,0,0-5.61-9.77,6.18,6.18,0,0,0-4.59,1.9c-1.33,1.68-2.68,3.33-4,5A34.36,34.36,0,0,1,159.84,27c-.56.48-1.14.94-1.71,1.41a35.24,35.24,0,0,1-5,3.11,24.46,24.46,0,0,1-3.37,1,17.8,17.8,0,0,1-2.53,0l-.33-.07a35.31,35.31,0,0,0,2.14-7.66A43.19,43.19,0,0,0,149.71,13a17.94,17.94,0,0,0-1.09-4.74,18.59,18.59,0,0,0-1.08-2.35,14.77,14.77,0,0,0-1.81-2.3l-.7-.57a10.86,10.86,0,0,0-1.92-1.38,14.81,14.81,0,0,0-3-1.23A9.9,9.9,0,0,0,137,0a12.92,12.92,0,0,0-3.16.41Zm2.47,10.87-.44.06.44-.06Zm.31.06.41.12.06,0,0,.05.12.2a14.54,14.54,0,0,1,.42,1.73,40.71,40.71,0,0,1-.28,6.89,44.72,44.72,0,0,1-1.38,6c-.38-.37-.74-.74-1.09-1.14s-.39-.64-.57-1a15.33,15.33,0,0,1-.46-1.77,19.82,19.82,0,0,1,0-3.53,37.91,37.91,0,0,1,1.52-6.31c.11-.22.23-.44.36-.65s.26-.27.39-.4l.37-.22.09,0Zm.95.47.43.34-.43-.34Zm-42,14.82-.24.1.24-.1Zm.25.13-.23,0,.23,0Zm-1.34.47-.11.09.11-.09Zm.21.1a18.74,18.74,0,0,1,1,1.81,31.71,31.71,0,0,1,1.24,4.64c.1,1.1.16,2.2.17,3.32a25.79,25.79,0,0,1-.24,3.4c-.08.54-.17,1.08-.26,1.62-.46-.93-.89-1.88-1.31-2.83a42.09,42.09,0,0,1-1.9-6,16.74,16.74,0,0,1,0-2.24,20,20,0,0,1,.73-2.76c.17-.33.35-.66.55-1Zm-.09,0-.17.23a2,2,0,0,1,.17-.23Zm.37.28.11.15L95,27.62Zm-39,10h0Zm-.46.07a9.62,9.62,0,0,1,1,.61,14.51,14.51,0,0,1,1.24,1.24,17.51,17.51,0,0,1,1.15,2,17.25,17.25,0,0,1,.74,2.8,29.79,29.79,0,0,1-.22,5.74,39.77,39.77,0,0,1-.79,4.17,67.6,67.6,0,0,1-1.89,6.53c-.22.43-.44.85-.68,1.26a44.12,44.12,0,0,1-3.31-6.5A26.94,26.94,0,0,1,51.4,51a31.58,31.58,0,0,1,.21-5.58,23.88,23.88,0,0,1,1-4.32,20.07,20.07,0,0,1,1.5-2.47l.3-.32c.34-.22.69-.41,1-.59Zm-.21.05-.26.11.26-.11Zm72.36,2.1L126.79,41c.28-.38.57-.75.86-1.12Z"/></g></g></svg>