<svg xmlns="http://www.w3.org/2000/svg" viewBox="0 0 84.78 105.09"><defs><style>.cls-1{fill:#ec7d69;}</style></defs><title>資產 4</title><g id="圖層_2" data-name="圖層 2"><g id="Draw_Layer" data-name="Draw Layer"><path class="cls-1" d="M56.41.42A13,13,0,0,0,54.48.9a8.73,8.73,0,0,0-4.91,3.83,8.81,8.81,0,0,0-1.11,4.76,24.81,24.81,0,0,0,.37,3.09c.32,2.11.82,4.21,1.23,6.31s.92,4.41,1.41,6.6,1.06,4.36,1.64,6.53l.3,1.08c-2.3,0-4.61-.08-6.91-.24s-4.67-.4-7-.53a16.35,16.35,0,0,0-8.29,1.41c-3.06,1.56-4.46,4.75-4.5,8a24.5,24.5,0,0,0,.27,3c.17,1.6.4,3.2.63,4.79.33,2.33.79,4.65,1.28,6.95s.93,4.63,1.5,6.92c.06.27.13.53.2.8-2.38-.1-4.76-.34-7.1-.4s-4.83-.08-7.24,0A31.61,31.61,0,0,0,7.86,65L6,65.78a8.53,8.53,0,0,0-2.22,1.6,20.52,20.52,0,0,0-1.6,2.11A12.9,12.9,0,0,0,1.07,72,18.15,18.15,0,0,0,.3,76.31c-.1,1-.19,2.08-.23,3.11C0,81.73,0,84.05,0,86.35c0,2.11,0,4.21.16,6.32a72.19,72.19,0,0,0,1.06,7.87,5.92,5.92,0,0,0,2.85,3.7,6.22,6.22,0,0,0,4.77.63A6.28,6.28,0,0,0,12.56,102a6.67,6.67,0,0,0,.62-4.78c-.13-.84-.27-1.68-.4-2.52-.33-2.89-.41-5.78-.49-8.69a86.11,86.11,0,0,1,0-9.64v0l.48-.09a70.9,70.9,0,0,1,15.47.62,64.7,64.7,0,0,0,6.66.65,14,14,0,0,0,1.45,0c.85-.07,1.7-.21,2.54-.33a8.66,8.66,0,0,0,2.35-1,7.79,7.79,0,0,0,1.89-1.57,8.39,8.39,0,0,0,1.94-3.4,12.46,12.46,0,0,0,.29-4,53.31,53.31,0,0,0-1.53-7.52c-.59-2.28-1.14-4.57-1.68-6.87-.59-2.46-1.23-4.93-1.79-7.4l.47,0c4.61.69,9.22,1.28,13.87,1.62a32.17,32.17,0,0,0,8.08-.26,8.79,8.79,0,0,0,6.24-6,14.88,14.88,0,0,0,.4-2.65,3.64,3.64,0,0,0-.05-.87,20,20,0,0,0-.52-3.05c-.15-.51-.3-1-.46-1.53-1.25-4.08-2.58-8.13-3.66-12.26-.52-2-1-4-1.51-6,0-.13-.07-.26-.1-.4,1.8.38,3.59.83,5.4,1.18,1.44.29,2.9.51,4.36.73a29.05,29.05,0,0,0,3.06.38,9,9,0,0,0,4.74-1.23,8.26,8.26,0,0,0,4.07-7.38,7.16,7.16,0,0,0-2-4.88A7,7,0,0,0,80,1.24,8,8,0,0,0,76.24.33c-.58,0-1.16,0-1.75,0-1.17,0-2.35,0-3.52,0-2,0-4-.07-6.06-.22C63.79.05,62.66,0,61.53,0a29.4,29.4,0,0,0-5.12.42ZM11.23,76.65l-.21.16a1.92,1.92,0,0,1,.21-.16Z"/></g></g></svg>