<svg xmlns="http://www.w3.org/2000/svg" viewBox="0 0 125.21 112.6"><defs><style>.cls-1{fill:#f29d33;}</style></defs><title>資產 11</title><g id="圖層_2" data-name="圖層 2"><g id="Draw_Layer" data-name="Draw Layer"><path class="cls-1" d="M24.65,6.18a8.58,8.58,0,0,0-3,11.6c.86,1.6,1.73,3.21,2.58,4.81s1.56,3.27,2.49,4.83a8.53,8.53,0,0,0,14.73-8.61c-.95-1.51-1.71-3.13-2.53-4.72s-1.75-3.25-2.63-4.87A8.28,8.28,0,0,0,28.9,5.05a8.43,8.43,0,0,0-4.25,1.13Z"/><path class="cls-1" d="M64.06,1.26a9.25,9.25,0,0,0-4.24,5.5,9.61,9.61,0,0,0,.93,7.1l2.13,4.21c1.32,2.66,2.79,5.54,5.63,6.85a9,9,0,0,0,13.28-9.74A23.52,23.52,0,0,0,79,9c-2.14-3.7-3.39-7.43-7.83-8.63A9.07,9.07,0,0,0,68.72,0,9.21,9.21,0,0,0,64.06,1.26Z"/><path class="cls-1" d="M5,37a6.77,6.77,0,0,0-4,3.08,6.43,6.43,0,0,0-.67,5.17q1,2.64,2.05,5.29a22.28,22.28,0,0,0,2.79,5.79,6.54,6.54,0,0,0,2.35,2.35c4.16,2.44,10-.65,9.78-5.66a12.12,12.12,0,0,0-1.07-3.91l-2.37-6A15.24,15.24,0,0,0,11.66,39,6.35,6.35,0,0,0,5,37Z"/><path class="cls-1" d="M63,40.54a8,8,0,0,0-2.85,10.88c.94,1.68,1.87,3.38,2.8,5.07a47,47,0,0,0,2.61,4.58,8.28,8.28,0,0,0,4.68,3.59,7.84,7.84,0,0,0,9.63-5.47c.09-.69.19-1.38.28-2.08a7.73,7.73,0,0,0-1.07-4c-1.55-3.35-3.4-6.54-5.2-9.76A8,8,0,0,0,63,40.54Z"/><path class="cls-1" d="M34,70.05a7.32,7.32,0,0,0-4.23,3.23A6.76,6.76,0,0,0,29,78.72c.88,2.12,1.76,4.24,2.67,6.35a18.86,18.86,0,0,0,3.66,6.05c4.26,4.43,12.51.72,11.77-5.49a13.5,13.5,0,0,0-1.33-3.91L43.4,76.48a15.31,15.31,0,0,0-3.29-5.18A6.34,6.34,0,0,0,34,70.05Z"/><path class="cls-1" d="M71.32,86a8.23,8.23,0,0,0-3.74,4.87L67.28,93a8.13,8.13,0,0,0,1.12,4.11c.93,2,1.86,4.09,2.94,6.06a26.46,26.46,0,0,0,5.27,7.11,8.21,8.21,0,0,0,5.58,2.31c4.61,0,8.5-4.09,7.72-8.72A18.65,18.65,0,0,0,87.42,98l-4.23-7.5c-1.78-3.15-3.89-5.62-7.75-5.62A8.21,8.21,0,0,0,71.32,86ZM87.24,98.41l.15.2-.15-.2Z"/><path class="cls-1" d="M106.9,50.77a7.22,7.22,0,0,0-2.56,9.79c1.37,2.28,2.78,4.54,4.07,6.88.56,1,1.07,2,1.62,3.07a10.27,10.27,0,0,0,3.66,4.1,7.73,7.73,0,0,0,8.16-.09c8.76-4.8-2-16-5.16-21.19a7.33,7.33,0,0,0-6.24-3.52A7,7,0,0,0,106.9,50.77Z"/></g></g></svg>