<svg xmlns="http://www.w3.org/2000/svg" viewBox="0 0 125.91 71.39"><defs><style>.cls-1{fill:#f1d3af;}</style></defs><title>資產 10</title><g id="圖層_2" data-name="圖層 2"><g id="Draw_Layer" data-name="Draw Layer"><path class="cls-1" d="M120.62,52.49a13.51,13.51,0,0,0-3.5.28c-1.14.2-2.31.24-3.46.33a76.88,76.88,0,0,0-8,1.16c-2.86.52-5.68,1.19-8.49,1.88l-4,1c-.06-.18-.11-.35-.17-.52-.91-3.53-1.38-7.13-2-10.72-.6-3.28-1-6.9-3.35-9.48a6.52,6.52,0,0,0-2.83-2,4.53,4.53,0,0,0-1.57-.35,12.51,12.51,0,0,0-1.92,0,12.16,12.16,0,0,0-2.75.79c-1.33.33-2.67.58-4,.89-2.42.57-4.79,1.38-7.16,2.14s-4.61,1.66-6.89,2.55c-.21-1-.38-2-.5-3-.17-1.45-.26-2.9-.31-4.35,0-1.14,0-2.27.08-3.4a33.19,33.19,0,0,0,.07-5.55,6.77,6.77,0,0,0-2.69-4.49,7.12,7.12,0,0,0-4.94-1.12,12.13,12.13,0,0,0-2.83.86c-.68.25-1.37.52-2,.79-2.63,1.07-5.14,2.49-7.67,3.77-1.32.67-2.67,1.3-4,1.94l-1.57.73c-.32-1.08-.66-2.15-1-3.23a86.79,86.79,0,0,1-2.23-9.8c-.26-1.63-.5-3.26-.78-4.89a22.16,22.16,0,0,0-.52-2.39A11.15,11.15,0,0,0,28.69,4a9.46,9.46,0,0,0-2.28-2.76,6.27,6.27,0,0,0-5.36-1c-1.14.27-2.26.62-3.39,1A33,33,0,0,0,13,3a99.47,99.47,0,0,0-11,6.37A5.08,5.08,0,0,0,0,12.83a5.27,5.27,0,0,0,4.64,5.82l1.36,0a5.32,5.32,0,0,0,2.56-1.12c1.11-.72,2.22-1.43,3.34-2.12,1.93-1.14,3.88-2.24,5.87-3.27.94-.49,1.91-1,2.9-1.42.11,1.05.18,2.11.27,3.16.2,2.14.44,4.27.76,6.4.63,4.23,1.47,8.43,2,12.67a11.34,11.34,0,0,0,.73,3.17,7.59,7.59,0,0,0,5.95,4.32,8.67,8.67,0,0,0,2.44.07,11.45,11.45,0,0,0,3.29-.66c.76-.23,1.49-.5,2.22-.77a49.59,49.59,0,0,0,6.27-3.14c1.27-.71,2.53-1.45,3.77-2.22-.08,1.34-.12,2.68-.11,4A55.91,55.91,0,0,0,49,46.1c.14,1,.18,1.94.24,2.91a7,7,0,0,0,2.82,5,7.41,7.41,0,0,0,3.29,1.29c.67,0,1.33,0,2,0a9.13,9.13,0,0,0,2.11-.56,59.09,59.09,0,0,0,7-2.8c2.27-1,4.51-2.08,6.81-3,2.05-.84,4.08-1.66,6.19-2.31h0c.38,3.66.39,7.36.89,11,.31,2.2.74,4.38,1.26,6.54a10.47,10.47,0,0,0,2,4.56,7.66,7.66,0,0,0,5.48,2.7,17.88,17.88,0,0,0,5.26-.74c4.93-1.32,9.81-2.8,14.8-3.89,2.31-.51,4.64-1,7-1.32a20.88,20.88,0,0,0,6.2-1.58,6.06,6.06,0,0,0,3.49-6.32,5.64,5.64,0,0,0-.43-1.49,5.85,5.85,0,0,0-4.79-3.56ZM23.76,9.59h0ZM30.67,27.9h0ZM20.36,8.39h0l-.13-.12.12.11Z"/></g></g></svg>