<svg xmlns="http://www.w3.org/2000/svg" viewBox="0 0 37.2 41.93"><defs><style>.cls-1{fill:#f3ae9f;}</style></defs><title>資產 8</title><g id="圖層_2" data-name="圖層 2"><g id="Draw_Layer" data-name="Draw Layer"><path class="cls-1" d="M16.42.33a11.85,11.85,0,0,0-2.76,1,12,12,0,0,0-1.88,1.06A27.88,27.88,0,0,0,7.49,6.09a27.54,27.54,0,0,0-3,3.69c-.13.2-.25.4-.37.61-2,2.33-2.8,5.51-3.37,8.44A45.37,45.37,0,0,0,0,25.3a19,19,0,0,0,2,8.63,16.81,16.81,0,0,0,2.58,3.64,15.2,15.2,0,0,0,1.6,1.61,9.27,9.27,0,0,0,3,1.69,17,17,0,0,0,4.74,1,22.29,22.29,0,0,0,5.47-.23c.7-.11,1.39-.26,2.08-.44a16.53,16.53,0,0,0,2.59-1A17.72,17.72,0,0,0,27.32,38,37.48,37.48,0,0,0,31,35a20.74,20.74,0,0,0,2.48-3,13.37,13.37,0,0,0,1.23-2.59,30.73,30.73,0,0,0,1-3.07,46.78,46.78,0,0,0,1.33-6.39A19.22,19.22,0,0,0,36.87,14a19,19,0,0,0-.5-2.21,14.42,14.42,0,0,0-1.54-3.25A16.53,16.53,0,0,0,27.6,2.13,27.92,27.92,0,0,0,22.91.44,14.39,14.39,0,0,0,20.11,0h-.46a22.11,22.11,0,0,0-3.23.33Z"/></g></g></svg>