<svg xmlns="http://www.w3.org/2000/svg" viewBox="0 0 51.48 53.61"><defs><style>.cls-1{fill:#45999d;}</style></defs><title>資產 5</title><g id="圖層_2" data-name="圖層 2"><g id="Draw_Layer" data-name="Draw Layer"><path class="cls-1" d="M24.27.34C12.81,2.49,5.3,13.3,1.6,23.6A28.33,28.33,0,0,0,.05,34.67,18.06,18.06,0,0,0,3,44.12,17.82,17.82,0,0,0,7,48a25.06,25.06,0,0,0,5.28,3,33.56,33.56,0,0,0,5.53,1.85,33,33,0,0,0,5.79.77,26.81,26.81,0,0,0,5.79-.49,25.52,25.52,0,0,0,6.28-2.16,21,21,0,0,0,4.78-3.14,24.52,24.52,0,0,0,3.86-4.15,37.84,37.84,0,0,0,5.12-9.49,33.45,33.45,0,0,0,1.29-5,28.56,28.56,0,0,0,.78-6.56,17.16,17.16,0,0,0-1.69-6.36c-.31-.73-.63-1.44-1-2.15a17.19,17.19,0,0,0-1.85-2.62,37,37,0,0,0-4.7-4.58,35.82,35.82,0,0,0-7.32-5.07,18.67,18.67,0,0,0-4-1.51A14,14,0,0,0,27.75,0,19.18,19.18,0,0,0,24.27.34Z"/></g></g></svg>