<svg xmlns="http://www.w3.org/2000/svg" viewBox="0 0 98.95 124.62"><defs><style>.cls-1{fill:#f3ae9f;}</style></defs><title>資產 9</title><g id="圖層_2" data-name="圖層 2"><g id="Draw_Layer" data-name="Draw Layer"><path class="cls-1" d="M98.93,110.38c-.05-.58-.09-1.17-.15-1.75-.11-1.32-.24-2.63-.39-3.94-.33-3-.76-6-1.29-8.93-1-5.56-1.94-10.52-2.9-15.17-.91-4.41-1.87-8.81-2.82-13.22-1.26-5.83-2.57-11.86-3.75-17.82-.72-3.62-1.59-7.27-2.43-10.8-.36-1.53-.73-3.07-1.08-4.6s-.65-2.87-1-4.3c-.27-1.27-.55-2.53-.84-3.79-.39-1.72-.84-3.47-1.28-5.15-.19-.75-.39-1.5-.58-2.25C79.8,16,79,13.45,78.15,11a18.1,18.1,0,0,0-1.62-3.52.86.86,0,0,0-.07-.1,15.27,15.27,0,0,0-1.09-2.78,9,9,0,0,0-3.12-3.14c-4-3-8.4-.86-11.55,2.09a21.73,21.73,0,0,0-2,2.14C52.56,13.37,46.56,20.82,41.4,29.19c-1,1.65-2,3.3-3,5A49.19,49.19,0,0,1,35.27,39c-1.25,1.7-2.44,3.44-3.72,5.12l.14-.18C30.41,45.56,29.17,47.24,28,49s-2.34,3.65-3.53,5.47c-2.44,3.72-5,7.35-7.57,11s-4.6,7.25-6.81,10.95C8,79.85,5.9,83.31,3.79,86.76a31.73,31.73,0,0,0-1.55,2.83A9.23,9.23,0,0,0,1.19,91a9.11,9.11,0,0,0,1.47,10.92,13.06,13.06,0,0,0,6.7,3.38,40.62,40.62,0,0,1,6.79,2.1c.86.35,1.72.72,2.58,1.08,1.3.55,2.65,1.11,4,1.62,2.49.95,5,1.82,7.16,2.54,4.21,1.42,8.75,3,14.27,5.1,2.86,1.07,5.4,1.95,7.75,2.69a51.54,51.54,0,0,0,7.1,1.6c5.3.85,11.3,1.82,17.23,2.4,1.14.11,2.28.17,3.4.17a32.76,32.76,0,0,0,4-.24c1.9-.22,3.68-.51,5.44-.87a15.59,15.59,0,0,0,4.34-1.74l.48-.37a8.77,8.77,0,0,0,2-1.66,12.52,12.52,0,0,0,2.53-4.46,14.56,14.56,0,0,0,.53-3.26A14.75,14.75,0,0,0,98.93,110.38Z"/></g></g></svg>