<svg xmlns="http://www.w3.org/2000/svg" viewBox="0 0 119.54 118.3"><defs><style>.cls-1{fill:#f1d3af;}</style></defs><title>資產 3</title><g id="圖層_2" data-name="圖層 2"><g id="Draw_Layer" data-name="Draw Layer"><path class="cls-1" d="M59.46,0h-.82a35.38,35.38,0,0,0-4.5.48L52.67.7a36.68,36.68,0,0,0-3.87.8l-.89.22c-.77.2-1.54.39-2.31.6a40.54,40.54,0,0,0-5.12,1.91L40,4.45a37,37,0,0,0-5.82,3,30,30,0,0,0-4.37,3.33,10.27,10.27,0,0,0-1.05,1.11c-.78.95-1.54,1.89-2.22,2.89a3.53,3.53,0,0,0-.21.32,26.54,26.54,0,0,0-4.21,3.58,29.94,29.94,0,0,0-2.55,2.9c-1.61,2.06-3.23,4.29-5.25,7.25-.93,1.35-1.78,2.81-2.59,4.21-.42.72-.84,1.44-1.27,2.15-1.3,2.16-2.59,4.44-3.92,7-1.15,2.19-2.11,4.54-3,6.81l-.72,1.75A39.65,39.65,0,0,0,.17,61.48,31.52,31.52,0,0,0,1.17,73c1.33,5.19,4.08,9.9,6.74,14.45l.21.36a78,78,0,0,0,4.45,6.55,48.21,48.21,0,0,0,5.24,6.28,46.16,46.16,0,0,0,6.53,5,98.25,98.25,0,0,0,17.44,8.9A48.8,48.8,0,0,0,52,117.32a64,64,0,0,0,10.89,1h1.32a42.07,42.07,0,0,0,11.56-2c1.57-.5,3.13-1.15,4.64-1.78l1.28-.52c2.59-1.06,5.38-2.28,8.77-3.84a60.49,60.49,0,0,0,8.45-4.46,51.49,51.49,0,0,0,8.22-6.87c.63-.64,1.22-1.37,1.79-2.07l.55-.68a33.1,33.1,0,0,0,3.5-4.84A47.65,47.65,0,0,0,117,81.68a54.59,54.59,0,0,0,1.55-8.47l.13-1-.13.84c.36-2.69.72-5.66.9-8.61a45.25,45.25,0,0,0-.48-10,43.53,43.53,0,0,0-3.58-11.94l-.49-1.11c-.58-1.33-1.18-2.64-1.79-4-2.56-5.51-6.3-10.35-10-14.76C99.28,18,94.52,14.36,89.92,10.81a58.06,58.06,0,0,0-6-4,64.77,64.77,0,0,0-9-4A41.64,41.64,0,0,0,68.41.93,44,44,0,0,0,59.46,0Z"/></g></g></svg>