<svg xmlns="http://www.w3.org/2000/svg" viewBox="0 0 55.24 284.79"><defs><style>.cls-1{fill:#abd2bf;}</style></defs><title>資產 15</title><g id="圖層_2" data-name="圖層 2"><g id="Draw_Layer" data-name="Draw Layer"><path class="cls-1" d="M48.77,1.11c-.87.72-1.72,1.46-2.56,2.21A25.84,25.84,0,0,0,42.94,7c-.71.95-1.3,2-1.92,3s-1.15,2-1.71,3c-2.21,4.06-4.26,8.21-6.41,12.31A213.45,213.45,0,0,0,21.66,51.57c-1.3,3.59-2.5,7.21-3.52,10.88-.6,2.12-1.25,4.24-1.78,6.38q-.87,3.51-1.72,7c-.89,3.63-1.69,7.3-2.32,11-.4,2.33-.84,4.66-1.16,7q-.4,3.08-.82,6.15c-.35,2.58-.59,5.18-.87,7.77-.12,1-.16,2.07-.24,3.1S9,113,9,114c-.07,2.28-.24,4.58-.2,6.86s0,4.86.13,7.28c.17,3.21.29,6.43.64,9.63a54.91,54.91,0,0,0,2.18,10.38A56.22,56.22,0,0,0,13.92,154c.12.27.25.55.39.82-.32.78-.62,1.57-.92,2.36-.79,2.09-1.43,4.21-2.1,6.33-1.42,4.5-2.42,9.14-3.5,13.73a273.52,273.52,0,0,0-5.22,27.67C2,209.5,1.4,214.07,1.09,218.65S.52,228,.39,232.73c-.27,9.66-.51,19.34-.32,29,.06,3.6.18,7.19.44,10.78q.18,2.63.51,5.25c.26,2,.46,4,2,5.57a5.1,5.1,0,0,0,4.83,1.3,5.38,5.38,0,0,0,3.25-2.75,4.51,4.51,0,0,0-.48-5.13c0-.24-.07-.49-.11-.73-.07-.45-.14-.9-.2-1.35a231.49,231.49,0,0,1-1.22-27c0-5,0-10,.11-15,.07-4.69.3-9.39.59-14.08.29-4.89.9-9.77,1.51-14.63,1.21-7.87,2.68-15.7,4.48-23.46,1-4.13,1.9-8.27,3-12.36.55-2,1.15-3.94,1.75-5.91a25.71,25.71,0,0,0,6,3.12,10.68,10.68,0,0,0,2.16.47,14.35,14.35,0,0,0,2.45.17,10.85,10.85,0,0,0,5-1.64,14.63,14.63,0,0,0,2.09-1.57c.59-.5,1.15-1,1.7-1.56a21,21,0,0,0,2.67-3.35,22,22,0,0,0,2-4.36,22,22,0,0,0,1.12-4.16c.43-2.7.79-5.39,1.08-8.1a48.22,48.22,0,0,0,.3-6.35c-.11-3.67-.73-7.76-4.07-10a7.87,7.87,0,0,0-1.89-.92,10.15,10.15,0,0,0-2.26-.36,7.64,7.64,0,0,0-2,.34,13.13,13.13,0,0,0-2.35,1,10.51,10.51,0,0,0-1.73,1.17c-.66.51-1.3,1-1.91,1.6a31.37,31.37,0,0,0-3.3,3.71c-1.58,1.94-3.1,4-4.52,6a48.77,48.77,0,0,0-3.45,5.61l-.82,1.63a57.24,57.24,0,0,1-1.5-6.82c-.23-2-.35-4-.46-6.06-.07-1.38-.18-2.77-.2-4.15,0-3-.14-5.93,0-8.89.05-1.65.11-3.29.16-4.94s.26-3.14.38-4.7c.22-2.7.56-5.4.87-8.1l.9-6.51c.34-2.48.87-5,1.3-7.43s1-4.74,1.53-7.1,1.1-4.53,1.66-6.8c1-4.21,2.17-8.41,3.48-12.55.75-2.37,1.51-4.73,2.35-7.07s1.72-4.7,2.61-7c1-2.78,2.2-5.51,3.34-8.25,1.11-2.39,2.23-4.77,3.39-7.13s2.32-4.54,3.48-6.8,2.41-4.8,3.66-7.17a61.65,61.65,0,0,1,3.85-6.57,35.06,35.06,0,0,1,4.52-4.26,3.63,3.63,0,0,0,1.11-2.68A3.79,3.79,0,0,0,51.45,0a4.07,4.07,0,0,0-2.68,1.11ZM38.33,131.21a2.88,2.88,0,0,1,.39.3l-.39-.3Zm1,.62.29.13-.29-.13Zm-.35.06a11.86,11.86,0,0,1,.27,1.18,59,59,0,0,1-.82,12.58l.14-1.05-.42,2.48a25.61,25.61,0,0,1-1.34,4.79,16.42,16.42,0,0,1-1.47,2.62,22.79,22.79,0,0,1-2.51,2.5,12.11,12.11,0,0,1-1.37.86c-.22.07-.45.13-.68.18h-.6a14.44,14.44,0,0,1-1.93-.51,25.4,25.4,0,0,1-3.64-2.12,13.87,13.87,0,0,1-1-1c1.15-2.63,2.35-5.25,3.73-7.76a83.06,83.06,0,0,1,6.48-9.73,31.18,31.18,0,0,1,4-4.32c.38-.26.76-.49,1.15-.71ZM10.21,101c0-.32.09-.65.13-1v-.06c0,.34-.09.69-.14,1Z"/></g></g></svg>