<svg xmlns="http://www.w3.org/2000/svg" viewBox="0 0 59.27 69.32"><defs><style>.cls-1{fill:#ec7d69;}</style></defs><title>資產 6</title><g id="圖層_2" data-name="圖層 2"><g id="Draw_Layer" data-name="Draw Layer"><path class="cls-1" d="M56.33,4.17A9.53,9.53,0,0,0,54.48,2.8a11.8,11.8,0,0,0-2.91-1.12c-.52-.13-1.07-.2-1.6-.29-1.72-.32-3.46-.52-5.2-.74C42.66.38,40.52.3,38.4.2,36,.09,33.69,0,31.33,0h-.42C29,0,27,.17,25.08.27c-2.3.12-4.61.21-6.91.28-2,.06-4,.06-5.94.14-1.06.05-2.12.12-3.17.22-.44,0-.88.08-1.32.14A21.25,21.25,0,0,0,5,1.48a5.76,5.76,0,0,0-1.06.37c-.2,0-.41.07-.61.12A4.43,4.43,0,0,0,.69,4,3.93,3.93,0,0,0,.17,5.48c-.68,4.75.81,6.71,2,11.25,2,7.33,3.91,14.69,6.23,21.92,1.63,5.1,3.18,10.22,4.84,15.31.74,2.24,1.48,4.48,2.27,6.71.34.94.63,1.9,1,2.83.56,1.37,1.17,3.1,2.36,4.07A7.56,7.56,0,0,0,21.6,69.1a6.32,6.32,0,0,0,3.26,0,6.94,6.94,0,0,0,2.22-.91A14.49,14.49,0,0,0,29,66.76a17.68,17.68,0,0,0,2.35-2.82c1.54-2,2.86-4.17,4.2-6.29,2.91-4.58,5.68-9.23,8.44-13.91,1.31-2.21,2.62-4.42,3.91-6.64,1.38-2.38,2.61-4.82,3.81-7.3q3.5-7.14,6.42-14.52c.28-.71.56-1.43.78-2.15A8.73,8.73,0,0,0,56.33,4.17ZM44.07,10.69V10.6s0,.06,0,.08Z"/></g></g></svg>