<svg xmlns="http://www.w3.org/2000/svg" viewBox="0 0 103.2 150.01"><defs><style>.cls-1{fill:#abd2bf;}</style></defs><title>資產 13</title><g id="圖層_2" data-name="圖層 2"><g id="Draw_Layer" data-name="Draw Layer"><path class="cls-1" d="M37.31,24.37c-2.08.63-3.61,2.34-4.84,4A13.77,13.77,0,0,0,31,31.5a12.6,12.6,0,0,0-.51,1.72c-.11.5-.22,1-.32,1.51q-.28.47-.54.93a18.28,18.28,0,0,0-1.32,3.43A9.23,9.23,0,0,0,28.54,46a6.56,6.56,0,0,0,1.73,2.11,5.39,5.39,0,0,0,1.94,1.12,7.76,7.76,0,0,0,1.67.27,2.83,2.83,0,0,0,.79-.06,2,2,0,0,0,.77-.06,1.84,1.84,0,0,0,.77-.41,7.51,7.51,0,0,0,1-.56,5.86,5.86,0,0,0,.82-.59l.29-.09a9.51,9.51,0,0,0,2.46-1.25,15.35,15.35,0,0,0,1.35-1.06,8.35,8.35,0,0,0,1.09-1.3,9.32,9.32,0,0,0,1.28-2.44,12.17,12.17,0,0,0,.69-3.12A9.92,9.92,0,0,0,45,35.69c.11-.64.18-1.28.24-1.92a10,10,0,0,0-.44-3.47,12.72,12.72,0,0,0-1.64-3.5,6.17,6.17,0,0,0-2.39-2.2,4.6,4.6,0,0,0-2-.46,5.07,5.07,0,0,0-1.48.23Z"/><path class="cls-1" d="M69.36.18l-.15.05c-.32.06-.63.14-.94.23a8.8,8.8,0,0,0-4.64,3.76,7.76,7.76,0,0,0-.72,1.58,12.72,12.72,0,0,0-.47,1.48c0,.11,0,.23-.08.35a14.63,14.63,0,0,0-.84,3.23,16.7,16.7,0,0,0-.61,3.73,6.66,6.66,0,0,0,.79,3.15,7.4,7.4,0,0,0,.86,1.14,4.69,4.69,0,0,0,1.89,1.21c1.88.79,3.91.17,5.65-.71a19.74,19.74,0,0,0,2.64-1.6,12,12,0,0,0,3.64-4.17,9.72,9.72,0,0,0,1-2.81A10.56,10.56,0,0,0,77.24,7a13,13,0,0,0-1.06-2.89,8.39,8.39,0,0,0-1.84-2.5,6,6,0,0,0-.48-.4A4.57,4.57,0,0,0,73.29.8,5.24,5.24,0,0,0,71.61.11L70.75,0,69.36.18Z"/><path class="cls-1" d="M86.44,35.34a10.88,10.88,0,0,0-1.79.7,7.43,7.43,0,0,0-1.36,1,4.94,4.94,0,0,0-.75.83c-.38.48-.74,1-1.08,1.47a8.77,8.77,0,0,0-.49.84c-.32.39-.62.81-.92,1.23l-.31.53-.66,1.56a12.32,12.32,0,0,0-.51,3,11.47,11.47,0,0,0,.32,2.92,8,8,0,0,0,.55,1.7c.09.77.21,1.54.32,2.31a12.06,12.06,0,0,0,1.35,3.9,5.91,5.91,0,0,0,2.53,2.47,5.5,5.5,0,0,0,3.51.33,8.36,8.36,0,0,0,4.77-3.5,12,12,0,0,0,2-4.37,16.46,16.46,0,0,0,.52-4A16.19,16.19,0,0,0,94.83,45a15.85,15.85,0,0,0-.41-3.21,12.84,12.84,0,0,0-1.11-2.91,5.87,5.87,0,0,0-.62-.94,7.63,7.63,0,0,0-1.11-1.29,6,6,0,0,0-3.86-1.52,4.3,4.3,0,0,0-1.28.18Z"/><path class="cls-1" d="M56.82,70.2a8.72,8.72,0,0,0-2.75,1.7,11.7,11.7,0,0,0-2.5,3.33c0,.08-.08.17-.13.25a9.17,9.17,0,0,0-.65.72,12.45,12.45,0,0,0-2.53,5.23,15.25,15.25,0,0,0-.34,2.44A36.12,36.12,0,0,0,47.29,88,8.89,8.89,0,0,0,49,94.21a7.93,7.93,0,0,0,2.67,2.45,4.73,4.73,0,0,0,4.26-.06,5.86,5.86,0,0,0,.55-.3l.58-.15a8.22,8.22,0,0,0,1.41-.66,9.11,9.11,0,0,0,2.1-1.82,12.16,12.16,0,0,0,2-3.35,19.86,19.86,0,0,0,.77-2.12,15.92,15.92,0,0,0,.77-5.73c0-.13,0-.25,0-.38a21.18,21.18,0,0,0,.18-2.39,18.1,18.1,0,0,0-.49-4c-.42-2.06-1.43-4.29-3.38-5.31a4.09,4.09,0,0,0-1.88-.45,5.51,5.51,0,0,0-1.63.27Zm-.16,13.9.07.17s0-.11-.07-.17Z"/><path class="cls-1" d="M11.25,87.51a8.85,8.85,0,0,0-2.71,1.23,14.71,14.71,0,0,0-5.2,6.39,11.18,11.18,0,0,0-1.13,1.46A11.43,11.43,0,0,0,1.1,98.8,14,14,0,0,0,0,105.06a10,10,0,0,0,2.22,5.81A5.81,5.81,0,0,0,3.45,112a6.18,6.18,0,0,0,1.36.68l.32.06a3.14,3.14,0,0,0,1.1.1,4.55,4.55,0,0,0,1.31-.25l.18,0c3.29.81,6.75-1,8.77-3.56a14.62,14.62,0,0,0,2.83-5.93,20.41,20.41,0,0,0,.43-3.74,13.26,13.26,0,0,0-.35-3.14,11.73,11.73,0,0,0-1.55-3.91,5.21,5.21,0,0,0-.5-.66c-.57-1.52-1.43-3.22-3-3.88a4.1,4.1,0,0,0-1.68-.43h-.14a5.37,5.37,0,0,0-1.27.13Zm1.26,7.81a14.46,14.46,0,0,1-.06,1.74,12.87,12.87,0,0,1-.34,1.36,4,4,0,0,0-.37-.87,5.74,5.74,0,0,0-.58-.79,16.77,16.77,0,0,1,1.35-1.44Z"/><path class="cls-1" d="M49.57,123.73A10.58,10.58,0,0,0,48,124a10.18,10.18,0,0,0-1.52.64,8.19,8.19,0,0,0-2.39,1.87,11,11,0,0,0-1.91,2.9A24.37,24.37,0,0,0,40.52,134a11.47,11.47,0,0,0-.24,2.25l-.16.42a13.68,13.68,0,0,0-.64,3.6,13.15,13.15,0,0,0,.25,3.48l.15.54c.18.45.36.9.55,1.35a12,12,0,0,0,.87,1.28,7.82,7.82,0,0,0,2.9,2.52,6.63,6.63,0,0,0,4.07.49,10.29,10.29,0,0,0,3.54-1.38,12.21,12.21,0,0,0,3.13-3.16A17.41,17.41,0,0,0,56,143.7a10.78,10.78,0,0,0,1.65-1.38,10.25,10.25,0,0,0,2.52-4.82,13.91,13.91,0,0,0-.19-7.16c-.74-2.48-2.53-4.75-5.2-5.18l-.67-.08-.24-.18a7.46,7.46,0,0,0-1.75-.91,5.86,5.86,0,0,0-1.53-.27,3.62,3.62,0,0,0-.46,0,5.83,5.83,0,0,0-.59,0Z"/><path class="cls-1" d="M6.94,96.12a8.9,8.9,0,0,0-2,3.3c-.29.73-.56,1.46-.82,2.2a3.79,3.79,0,0,0,2.63,4.64,3.62,3.62,0,0,0,1.5.1l.2.1a4.64,4.64,0,0,0,2.21.61,4.15,4.15,0,0,0,3.06-1.36,6.46,6.46,0,0,0,1.45-3.08A7.93,7.93,0,0,0,15,99.07a6.12,6.12,0,0,0-2.57-3.54A4.92,4.92,0,0,0,10,94.84a4.56,4.56,0,0,0-3.07,1.28Z"/><path class="cls-1" d="M96.18,91.92a7.46,7.46,0,0,0-1.67.7,4.56,4.56,0,0,0-2.16.61c-.27.19-.53.38-.79.59a7.66,7.66,0,0,0-1,.92,10.59,10.59,0,0,0-1.11,1.46,8.89,8.89,0,0,0-1.26,3.37,8.14,8.14,0,0,0-.53,2.24,9.51,9.51,0,0,0,.14,3,8.19,8.19,0,0,0,.71,2.09l.3.57.28.36c.18.33.37.64.56.94a7.94,7.94,0,0,0,1.28,1.49,6.52,6.52,0,0,0,2.24,1.22l.88.12a3.29,3.29,0,0,0,1.43-.07,7.16,7.16,0,0,0,2-.65,10.2,10.2,0,0,0,2.78-1.93,10.48,10.48,0,0,0,2.65-5.16,13.83,13.83,0,0,0-.46-7.38,7.63,7.63,0,0,0-1.75-3.08,4.86,4.86,0,0,0-3.46-1.52,3.68,3.68,0,0,0-1,.15Z"/></g></g></svg>