<?xml version="1.0" encoding="utf-8"?>
<!-- Generator: Adobe Illustrator 22.0.1, SVG Export Plug-In . SVG Version: 6.00 Build 0)  -->
<svg version="1.1" id="圖層_1" xmlns="http://www.w3.org/2000/svg" xmlns:xlink="http://www.w3.org/1999/xlink" x="0px" y="0px"
	 viewBox="0 0 69.7 74.4" style="enable-background:new 0 0 69.7 74.4;" xml:space="preserve">
<style type="text/css">
	.st0{fill:#45999D;}
</style>
<title>資產 12</title>
<g id="圖層_2_1_">
	<g id="Draw_Layer">
		<path class="st0" d="M69.6,36c-0.7-3.4-3.4-5.8-6-8L34.3,3.3c-1.4-1.3-3-2.3-4.8-3C28.7,0.1,27.9,0,27,0c-2.7,0.3-5.1,1.7-6.9,3.8
			c-2.3,2.7-3.4,6.2-4.5,9.6L1.9,55.6c-1,3.1-2,6.3-1.9,9.5C0.3,77,12.6,75.4,20.2,71.8c14-6.7,28.1-13.5,40.9-22.4
			C65.7,46.2,70.7,41.5,69.6,36z M14.5,65.9L14.5,65.9c0,0.2,0.1,0.4,0.1,0.6C14.5,66.3,14.5,66.1,14.5,65.9z"/>
	</g>
</g>
</svg>
