<svg xmlns="http://www.w3.org/2000/svg" viewBox="0 0 90.2 92.1"><defs><style>.cls-1{fill:#f29d33;}</style></defs><title>資產 1</title><g id="圖層_2" data-name="圖層 2"><g id="Draw_Layer" data-name="Draw Layer"><path class="cls-1" d="M30.12,0a28.86,28.86,0,0,0-3.95.37l-.23,0a8.35,8.35,0,0,0-2.34.82,6.1,6.1,0,0,0-2.15,2l-.16.22a14.57,14.57,0,0,0-.88,1.38l-.3.52c-1.27,2.1-2.66,4.11-3.72,5.63-1.46,2.07-3,4.08-4.45,6s-3.12,3.79-5,5.85q-1.62,1.82-3.19,3.65c-.87,1-1.73,2-2.61,3A4.18,4.18,0,0,0,0,32.31a3.92,3.92,0,0,0,.4,1.74,4.41,4.41,0,0,0-.25,2.77c.76,4.84,1.51,8.82,2.37,12.53.7,3.06,1.56,6.12,2.4,9.08l.53,1.88c.87,3.13,1.91,6.83,3,10.52.53,1.8,1.08,3.56,1.64,5.24l.4,1.24c.13.42.26.83.4,1.24a14.08,14.08,0,0,0,.65,1.55l.2.42a8.29,8.29,0,0,0,.66,1.34A6.38,6.38,0,0,0,14.68,84a13.51,13.51,0,0,0,3.5,1.28c10.21,2.35,20.65,3.38,31,5.13,4.21.71,9,3,12.87.79,3.15-1.8,4.81-6.55,6.73-9.44l1.18-1.79c2.16-3.24,4.56-6.58,7.56-10.53.77-1,1.54-2,2.3-3l1.8-2.26A64.57,64.57,0,0,0,88.71,54,11,11,0,0,0,90,50.57l0-.27a10.45,10.45,0,0,0,.16-1.58A8,8,0,0,0,90,47.28L90,46.92c0-.3-.13-.61-.21-.91a36.84,36.84,0,0,0-2.22-5.45C87.27,40,87,39.5,86.78,39c-.38-1-.75-1.93-1.12-2.9s-.82-2.18-1.26-3.27c-1-2.41-2-4.84-3.05-7.18l-.53-1.23c-1.43-3.28-3.57-6.95-5.17-10.42-1.51-3.24-2-9-5.57-10.72l-.17-.08a4.93,4.93,0,0,0-.67-.3,16.81,16.81,0,0,0-1.58-.59,28.75,28.75,0,0,0-3.56-.76A70.62,70.62,0,0,0,56.15.78C50.8.52,45.92.34,41.23.22L37.66.15c-1.2,0-2.39,0-3.58-.06S31.61,0,30.38,0Z"/></g></g></svg>